# xmcd
#
# Track frame offsets:
#	150
#	14770
#	26935
#	41145
#	53165
#	65214
#	79142
#	90140
#	101726
#	112185
#	122133
#	134981
#	146326
#	159075
#	171877
#	183086
#	196152
#	208964
#	222229
#	233410
#	244902
#	258356
#	271971
#	283552
#
# Disc length: 3950 seconds
#
# Revision: 2
# Processed by: cddbd v1.5.2PL0 Copyright (c) Steve Scherf et al.
# Submitted via: audiograbber 1.83.01
#
DISCID=680f6c18
DTITLE=The Geatest Country Music Recordings Of All Time - Record 39 and 40
DYEAR=1900
DGENRE=
TTITLE0=Stamps Quartet - Give The World A Smile Each Day
TTITLE1=Cliff Carlilse - (The) Unclouded Day
TTITLE2=Carter Family - Church In The Wildwood
TTITLE3=Wayne Raney - Gathering In The Sky
TTITLE4=Roy Acuff - Tell Mother I'll Be There
TTITLE5=Bill Monroe - Shake My Mother's Hand For Me
TTITLE6=Chuck Wagon Gang - I'd Rather Have Jesus
TTITLE7=Chuck Wagon Gang - Springtime In Glory
TTITLE8=Chuck Wagon Gang - When I Looked Up And He Looked Down
TTITLE9=Red Foley - When God Dips His Love In My Heart
TTITLE10=Red Foley - Everybody's Gonna Have A Wonderful Time Up There (Gospel B
TTITLE10=oogie)
TTITLE11=Wally Fowler - Dig A Little Deeper (In God's Love)
TTITLE12=King's Sacred Quartet - He Will Set Your Fields On Fire
TTITLE13=King's Sacred Quartet - The Old Country Church
TTITLE14=Brown's Ferry Four - Keep On The Firing Line
TTITLE15=Brown's Ferry Four - On The Jericho Road
TTITLE16=Merle Travis - I Am A Pilgrim
TTITLE17=Chester Smith and Hazel Houser - Wait A Little Longer Please Jesus
TTITLE18=Hank Snow - The Gloryland March
TTITLE19=Reno and Smiley - I'm Using My Bible For A Roadmap
TTITLE20=Claude Gray - Family Bible
TTITLE21=Cowboy Copas - From The Manger To The Cross
TTITLE22=Bailes Brothers - I've Got A One Way Ticket To The Sky
TTITLE23=Flatt and Scruggs - Give Mother My Crown
EXTD=
EXTT0=
EXTT1=
EXTT2=
EXTT3=
EXTT4=
EXTT5=
EXTT6=
EXTT7=
EXTT8=
EXTT9=
EXTT10=
EXTT11=
EXTT12=
EXTT13=
EXTT14=
EXTT15=
EXTT16=
EXTT17=
EXTT18=
EXTT19=
EXTT20=
EXTT21=
EXTT22=
EXTT23=
PLAYORDER=
